<mxfile host="app.diagrams.net" agent="Mozilla/5.0 (Windows NT 10.0; Win64; x64) AppleWebKit/537.36 (KHTML, like Gecko) Chrome/131.0.0.0 Safari/537.36 Edg/131.0.0.0" version="25.0.1">
  <diagram name="Page-1" id="ezm0Pq5fRQrkyXwsqcCr">
    <mxGraphModel dx="1434" dy="784" grid="1" gridSize="10" guides="1" tooltips="1" connect="1" arrows="1" fold="1" page="1" pageScale="1" pageWidth="850" pageHeight="1100" math="0" shadow="0">
      <root>
        <mxCell id="0" />
        <mxCell id="1" parent="0" />
        <mxCell id="zCMqwl3r11mRrYLvSNlj-18" style="edgeStyle=orthogonalEdgeStyle;rounded=0;orthogonalLoop=1;jettySize=auto;html=1;" edge="1" parent="1" source="zCMqwl3r11mRrYLvSNlj-1" target="zCMqwl3r11mRrYLvSNlj-16">
          <mxGeometry relative="1" as="geometry" />
        </mxCell>
        <mxCell id="zCMqwl3r11mRrYLvSNlj-1" value="ew conv py" style="rounded=0;whiteSpace=wrap;html=1;" vertex="1" parent="1">
          <mxGeometry x="170" y="220" width="120" height="60" as="geometry" />
        </mxCell>
        <mxCell id="zCMqwl3r11mRrYLvSNlj-19" style="edgeStyle=orthogonalEdgeStyle;rounded=0;orthogonalLoop=1;jettySize=auto;html=1;" edge="1" parent="1" source="zCMqwl3r11mRrYLvSNlj-2" target="zCMqwl3r11mRrYLvSNlj-17">
          <mxGeometry relative="1" as="geometry" />
        </mxCell>
        <mxCell id="zCMqwl3r11mRrYLvSNlj-2" value="import yfinance py" style="rounded=0;whiteSpace=wrap;html=1;" vertex="1" parent="1">
          <mxGeometry x="170" y="320" width="120" height="60" as="geometry" />
        </mxCell>
        <mxCell id="zCMqwl3r11mRrYLvSNlj-3" value="ew conv source file" style="whiteSpace=wrap;html=1;aspect=fixed;" vertex="1" parent="1">
          <mxGeometry x="20" y="210" width="80" height="80" as="geometry" />
        </mxCell>
        <mxCell id="zCMqwl3r11mRrYLvSNlj-4" value="" style="endArrow=classic;html=1;rounded=0;entryX=0;entryY=0.5;entryDx=0;entryDy=0;" edge="1" parent="1" target="zCMqwl3r11mRrYLvSNlj-1">
          <mxGeometry width="50" height="50" relative="1" as="geometry">
            <mxPoint x="90" y="250" as="sourcePoint" />
            <mxPoint x="160" y="250" as="targetPoint" />
          </mxGeometry>
        </mxCell>
        <mxCell id="zCMqwl3r11mRrYLvSNlj-5" style="edgeStyle=orthogonalEdgeStyle;rounded=0;orthogonalLoop=1;jettySize=auto;html=1;entryX=0.25;entryY=0;entryDx=0;entryDy=0;exitX=0.5;exitY=0;exitDx=0;exitDy=0;" edge="1" parent="1" source="zCMqwl3r11mRrYLvSNlj-6" target="zCMqwl3r11mRrYLvSNlj-13">
          <mxGeometry relative="1" as="geometry">
            <mxPoint x="250" y="80" as="targetPoint" />
          </mxGeometry>
        </mxCell>
        <mxCell id="zCMqwl3r11mRrYLvSNlj-23" style="edgeStyle=orthogonalEdgeStyle;rounded=0;orthogonalLoop=1;jettySize=auto;html=1;exitX=0.75;exitY=1;exitDx=0;exitDy=0;entryX=0.25;entryY=0;entryDx=0;entryDy=0;" edge="1" parent="1" source="zCMqwl3r11mRrYLvSNlj-6" target="zCMqwl3r11mRrYLvSNlj-20">
          <mxGeometry relative="1" as="geometry" />
        </mxCell>
        <mxCell id="zCMqwl3r11mRrYLvSNlj-6" value="daily ticker list source files" style="whiteSpace=wrap;html=1;aspect=fixed;" vertex="1" parent="1">
          <mxGeometry x="30" y="55" width="80" height="80" as="geometry" />
        </mxCell>
        <mxCell id="zCMqwl3r11mRrYLvSNlj-7" value="" style="edgeStyle=orthogonalEdgeStyle;rounded=0;orthogonalLoop=1;jettySize=auto;html=1;" edge="1" parent="1" source="zCMqwl3r11mRrYLvSNlj-8" target="zCMqwl3r11mRrYLvSNlj-2">
          <mxGeometry relative="1" as="geometry" />
        </mxCell>
        <mxCell id="zCMqwl3r11mRrYLvSNlj-8" value="download folder" style="whiteSpace=wrap;html=1;aspect=fixed;" vertex="1" parent="1">
          <mxGeometry x="20" y="310" width="80" height="80" as="geometry" />
        </mxCell>
        <mxCell id="zCMqwl3r11mRrYLvSNlj-13" value="data cleaning and analysis to csv.&lt;span style=&quot;background-color: initial;&quot;&gt;py&lt;/span&gt;" style="rounded=0;whiteSpace=wrap;html=1;" vertex="1" parent="1">
          <mxGeometry x="250" y="55" width="120" height="60" as="geometry" />
        </mxCell>
        <mxCell id="zCMqwl3r11mRrYLvSNlj-24" style="edgeStyle=orthogonalEdgeStyle;rounded=0;orthogonalLoop=1;jettySize=auto;html=1;entryX=0.5;entryY=0;entryDx=0;entryDy=0;" edge="1" parent="1" source="zCMqwl3r11mRrYLvSNlj-14" target="zCMqwl3r11mRrYLvSNlj-20">
          <mxGeometry relative="1" as="geometry">
            <mxPoint x="640" y="200" as="targetPoint" />
          </mxGeometry>
        </mxCell>
        <mxCell id="zCMqwl3r11mRrYLvSNlj-14" value="postgresql&lt;div&gt;merged_tickers Close (Buy Price)&lt;div&gt;&lt;br&gt;&lt;/div&gt;&lt;/div&gt;" style="shape=cylinder3;whiteSpace=wrap;html=1;boundedLbl=1;backgroundOutline=1;size=15;" vertex="1" parent="1">
          <mxGeometry x="450" y="30" width="100" height="110" as="geometry" />
        </mxCell>
        <mxCell id="zCMqwl3r11mRrYLvSNlj-15" style="edgeStyle=orthogonalEdgeStyle;rounded=0;orthogonalLoop=1;jettySize=auto;html=1;entryX=0;entryY=0.5;entryDx=0;entryDy=0;entryPerimeter=0;" edge="1" parent="1" source="zCMqwl3r11mRrYLvSNlj-13" target="zCMqwl3r11mRrYLvSNlj-14">
          <mxGeometry relative="1" as="geometry" />
        </mxCell>
        <mxCell id="zCMqwl3r11mRrYLvSNlj-26" style="edgeStyle=orthogonalEdgeStyle;rounded=0;orthogonalLoop=1;jettySize=auto;html=1;exitX=1;exitY=0;exitDx=0;exitDy=52.5;exitPerimeter=0;entryX=0;entryY=0.25;entryDx=0;entryDy=0;" edge="1" parent="1" source="zCMqwl3r11mRrYLvSNlj-16" target="zCMqwl3r11mRrYLvSNlj-20">
          <mxGeometry relative="1" as="geometry" />
        </mxCell>
        <mxCell id="zCMqwl3r11mRrYLvSNlj-16" value="postgresql ew_conv_table" style="shape=cylinder3;whiteSpace=wrap;html=1;boundedLbl=1;backgroundOutline=1;size=15;" vertex="1" parent="1">
          <mxGeometry x="360" y="210" width="60" height="80" as="geometry" />
        </mxCell>
        <mxCell id="zCMqwl3r11mRrYLvSNlj-25" style="edgeStyle=orthogonalEdgeStyle;rounded=0;orthogonalLoop=1;jettySize=auto;html=1;exitX=1;exitY=0;exitDx=0;exitDy=27.5;exitPerimeter=0;entryX=0;entryY=0.75;entryDx=0;entryDy=0;" edge="1" parent="1" source="zCMqwl3r11mRrYLvSNlj-17" target="zCMqwl3r11mRrYLvSNlj-20">
          <mxGeometry relative="1" as="geometry" />
        </mxCell>
        <mxCell id="zCMqwl3r11mRrYLvSNlj-17" value="postgresql yfinance_data" style="shape=cylinder3;whiteSpace=wrap;html=1;boundedLbl=1;backgroundOutline=1;size=15;" vertex="1" parent="1">
          <mxGeometry x="360" y="310" width="60" height="80" as="geometry" />
        </mxCell>
        <mxCell id="zCMqwl3r11mRrYLvSNlj-32" style="edgeStyle=orthogonalEdgeStyle;rounded=0;orthogonalLoop=1;jettySize=auto;html=1;entryX=0;entryY=0.5;entryDx=0;entryDy=0;" edge="1" parent="1" source="zCMqwl3r11mRrYLvSNlj-20" target="zCMqwl3r11mRrYLvSNlj-31">
          <mxGeometry relative="1" as="geometry" />
        </mxCell>
        <mxCell id="zCMqwl3r11mRrYLvSNlj-20" value="testing.py&amp;nbsp;&lt;div&gt;(MAIN FILE)&lt;/div&gt;" style="rounded=0;whiteSpace=wrap;html=1;" vertex="1" parent="1">
          <mxGeometry x="570" y="270" width="120" height="60" as="geometry" />
        </mxCell>
        <mxCell id="zCMqwl3r11mRrYLvSNlj-29" style="edgeStyle=orthogonalEdgeStyle;rounded=0;orthogonalLoop=1;jettySize=auto;html=1;" edge="1" parent="1" source="zCMqwl3r11mRrYLvSNlj-27">
          <mxGeometry relative="1" as="geometry">
            <mxPoint x="520" y="495" as="targetPoint" />
          </mxGeometry>
        </mxCell>
        <mxCell id="zCMqwl3r11mRrYLvSNlj-27" value="postgresql Trade Journal&amp;nbsp;" style="shape=cylinder3;whiteSpace=wrap;html=1;boundedLbl=1;backgroundOutline=1;size=15;" vertex="1" parent="1">
          <mxGeometry x="565" y="430" width="130" height="130" as="geometry" />
        </mxCell>
        <mxCell id="zCMqwl3r11mRrYLvSNlj-28" style="edgeStyle=orthogonalEdgeStyle;rounded=0;orthogonalLoop=1;jettySize=auto;html=1;entryX=0.5;entryY=0;entryDx=0;entryDy=0;entryPerimeter=0;" edge="1" parent="1" source="zCMqwl3r11mRrYLvSNlj-20" target="zCMqwl3r11mRrYLvSNlj-27">
          <mxGeometry relative="1" as="geometry" />
        </mxCell>
        <mxCell id="zCMqwl3r11mRrYLvSNlj-30" value="Closed Archives" style="shape=cylinder3;whiteSpace=wrap;html=1;boundedLbl=1;backgroundOutline=1;size=15;" vertex="1" parent="1">
          <mxGeometry x="460" y="455" width="60" height="80" as="geometry" />
        </mxCell>
        <mxCell id="zCMqwl3r11mRrYLvSNlj-31" value="ew_conv_buy_&lt;div&gt;and_sell_today&lt;/div&gt;&lt;div&gt;&lt;span style=&quot;background-color: initial;&quot;&gt;_and_yesterday&lt;/span&gt;&lt;/div&gt;&lt;div&gt;&lt;span style=&quot;background-color: initial;&quot;&gt;.xlsx&lt;/span&gt;&lt;/div&gt;" style="whiteSpace=wrap;html=1;aspect=fixed;" vertex="1" parent="1">
          <mxGeometry x="720" y="245" width="110" height="110" as="geometry" />
        </mxCell>
      </root>
    </mxGraphModel>
  </diagram>
</mxfile>
